<svg width="18" height="18" viewBox="0 0 18 18" fill="none" xmlns="http://www.w3.org/2000/svg">
<circle cx="9" cy="9" r="9" fill="black"/>
<path d="M5.76172 13.52V4.31836H9.22204C9.97372 4.31836 10.6174 4.5862 11.1531 5.12188C11.6888 5.64892 11.9566 6.2926 11.9566 7.05292C11.9566 7.66636 11.7363 8.1934 11.2956 8.63404C11.6931 8.8414 12.0084 9.13516 12.2417 9.51532C12.4836 9.89548 12.6046 10.3275 12.6046 10.8113C12.6046 11.5716 12.3368 12.2153 11.8011 12.7424C11.2654 13.2608 10.6001 13.52 9.80524 13.52H5.76172ZM7.82236 11.6278H9.63676C9.91324 11.6278 10.1422 11.5414 10.3236 11.3686C10.5051 11.1872 10.5958 10.9668 10.5958 10.7076C10.5958 10.4484 10.5008 10.2324 10.3107 10.0596C10.1292 9.8782 9.90028 9.78748 9.6238 9.78748H7.82236V11.6278ZM7.82236 8.03788H8.98876C9.26524 8.03788 9.4942 7.95148 9.67564 7.77868C9.85708 7.60588 9.9478 7.38988 9.9478 7.13068C9.9478 6.87148 9.85708 6.65116 9.67564 6.46972C9.4942 6.28828 9.26524 6.19756 8.98876 6.19756H7.82236V8.03788Z" fill="white"/>
</svg>
