<svg width="12" height="12" viewBox="0 0 12 12" fill="none" xmlns="http://www.w3.org/2000/svg">
<circle cx="6" cy="6" r="6" fill="#FF1523"/>
<path d="M3.83984 9.01379V2.87939H6.14672C6.64784 2.87939 7.07696 3.05795 7.43408 3.41507C7.7912 3.76643 7.96976 4.19555 7.96976 4.70243C7.96976 5.11139 7.82288 5.46275 7.52912 5.75651C7.79408 5.89475 8.00432 6.09059 8.15984 6.34403C8.32112 6.59747 8.40176 6.88547 8.40176 7.20803C8.40176 7.71491 8.2232 8.14403 7.86608 8.49539C7.50896 8.84099 7.06544 9.01379 6.53552 9.01379H3.83984ZM5.2136 7.75235H6.4232C6.60752 7.75235 6.76016 7.69475 6.88112 7.57955C7.00208 7.45859 7.06256 7.31171 7.06256 7.13891C7.06256 6.96611 6.9992 6.82211 6.87248 6.70691C6.75152 6.58595 6.59888 6.52547 6.41456 6.52547H5.2136V7.75235ZM5.2136 5.35907H5.9912C6.17552 5.35907 6.32816 5.30147 6.44912 5.18627C6.57008 5.07107 6.63056 4.92707 6.63056 4.75427C6.63056 4.58147 6.57008 4.43459 6.44912 4.31363C6.32816 4.19267 6.17552 4.13219 5.9912 4.13219H5.2136V5.35907Z" fill="white"/>
</svg>
