<svg width="157" height="34" viewBox="0 0 157 34" fill="none" xmlns="http://www.w3.org/2000/svg">
<path d="M37.7749 23.4758C35.3004 23.4758 33.2125 22.6638 31.6273 21.0399C30.0034 19.416 29.1914 17.4442 29.1914 15.047C29.1914 12.6498 30.0034 10.6779 31.6273 9.05401C33.2512 7.43011 35.3004 6.61816 37.7362 6.61816C39.4375 6.61816 40.984 7.08214 42.4146 8.01008C43.8452 8.93802 44.8118 10.1753 45.3918 11.7219H41.1774C40.3654 10.6779 39.2055 10.1753 37.6976 10.1753C36.2283 10.1753 35.0684 10.6393 34.1404 11.5672C33.2512 12.4951 32.7872 13.6551 32.7872 15.047C32.7872 16.4389 33.2512 17.5988 34.1404 18.5268C35.0297 19.4547 36.2283 19.9187 37.6976 19.9187C40.0948 19.9187 41.4867 18.8747 41.912 16.7482H37.3109V13.3458H45.7784C45.9717 15.0083 45.8944 16.5162 45.5464 17.8308C45.1985 19.1454 44.6572 20.228 43.8839 21.0013C43.1106 21.8132 42.2213 22.4319 41.1774 22.8185C40.1721 23.2438 39.0508 23.4758 37.7749 23.4758Z" fill="black"/>
<path d="M57.7642 21.6982C56.6042 22.8581 55.1737 23.4381 53.5111 23.4381C51.8485 23.4381 50.418 22.8581 49.258 21.6982C48.0981 20.5383 47.4795 19.1463 47.4795 17.4451C47.4795 15.7826 48.0595 14.352 49.258 13.192C50.418 12.0321 51.8485 11.4521 53.5111 11.4521C55.1737 11.4521 56.6042 12.0321 57.7642 13.192C58.9241 14.352 59.5427 15.7826 59.5427 17.4451C59.5041 19.1463 58.9241 20.5769 57.7642 21.6982ZM51.6552 19.4557C52.1192 19.9583 52.7378 20.2289 53.4724 20.2289C54.2071 20.2289 54.8257 19.9583 55.2897 19.4557C55.7536 18.953 56.0243 18.2957 56.0243 17.4451C56.0243 16.6332 55.7923 15.9372 55.2897 15.4346C54.8257 14.9319 54.2071 14.6613 53.4724 14.6613C52.7378 14.6613 52.1192 14.9319 51.6552 15.4346C51.1913 15.9372 50.9206 16.5945 50.9206 17.4451C50.9593 18.2957 51.1913 18.953 51.6552 19.4557Z" fill="black"/>
<path d="M66.2702 23.4381C64.801 23.4381 63.5251 22.8581 62.4811 21.6595C61.4372 20.4996 60.9346 19.069 60.9346 17.4451C60.9346 15.8212 61.4372 14.3906 62.4811 13.2307C63.5251 12.0708 64.7623 11.4521 66.2702 11.4521C67.5848 11.4521 68.6288 11.9161 69.4021 12.8441V11.6841H72.8818V23.1288H69.4021V21.9688C68.6288 22.9741 67.5848 23.4381 66.2702 23.4381ZM65.1876 19.4943C65.6516 20.0356 66.3089 20.3063 67.0822 20.3063C67.8555 20.3063 68.4741 20.0356 68.9767 19.4943C69.4407 18.953 69.7114 18.2957 69.7114 17.4451C69.7114 16.6332 69.4794 15.9372 68.9767 15.3959C68.5128 14.8546 67.8555 14.584 67.0822 14.584C66.3089 14.584 65.6903 14.8546 65.1876 15.3959C64.7237 15.9372 64.453 16.5945 64.453 17.4451C64.453 18.2957 64.685 18.953 65.1876 19.4943Z" fill="black"/>
<path d="M75.7041 23.2056V6H79.1839V23.2056H75.7041Z" fill="black"/>
<path d="M89.7398 23.2056L85.4866 18.1019V23.2056H82.0068V6H85.4866V15.8207L88.8505 11.7223H92.9489L88.7345 16.9033L93.9542 23.167H89.7398V23.2056Z" fill="black"/>
<path d="M99.5606 23.4375C97.782 23.4375 96.3127 22.8575 95.1915 21.7363C94.0702 20.615 93.4902 19.1844 93.4902 17.4445C93.4902 15.7433 94.0702 14.3127 95.2301 13.1915C96.3901 12.0702 97.8207 11.4902 99.5606 11.4902C100.411 11.4902 101.184 11.6449 101.919 11.9155C102.654 12.2249 103.311 12.6115 103.891 13.1915C104.471 13.7328 104.896 14.4674 105.244 15.318C105.592 16.1686 105.708 17.1739 105.67 18.2565H96.8541C96.9314 18.8751 97.202 19.4164 97.666 19.8417C98.1687 20.267 98.8259 20.4604 99.7152 20.4604C100.218 20.4604 100.682 20.3444 101.107 20.151C101.532 19.9577 101.803 19.6871 101.919 19.3778H105.554C105.206 20.5763 104.471 21.5816 103.35 22.3162C102.267 23.0895 100.991 23.4375 99.5606 23.4375ZM99.4446 14.2354C98.7873 14.2354 98.246 14.3901 97.8207 14.738C97.3954 15.086 97.086 15.5113 96.9314 16.0526H101.842C101.687 15.434 101.378 14.97 100.914 14.6607C100.45 14.3901 99.9859 14.2354 99.4446 14.2354Z" fill="black"/>
<path d="M113.209 23.4375C111.43 23.4375 109.961 22.8575 108.84 21.7363C107.719 20.615 107.139 19.1844 107.139 17.4445C107.139 15.7433 107.719 14.3127 108.879 13.1915C110.038 12.0702 111.469 11.4902 113.209 11.4902C114.06 11.4902 114.833 11.6449 115.567 11.9155C116.302 12.2249 116.959 12.6115 117.539 13.1915C118.119 13.7328 118.545 14.4674 118.893 15.318C119.202 16.2073 119.357 17.1739 119.318 18.2565H110.502C110.58 18.8751 110.85 19.4164 111.314 19.8417C111.817 20.267 112.474 20.4604 113.364 20.4604C113.866 20.4604 114.33 20.3444 114.756 20.151C115.181 19.9577 115.451 19.6871 115.567 19.3778H119.202C118.854 20.5763 118.119 21.5816 116.998 22.3162C115.915 23.0895 114.64 23.4375 113.209 23.4375ZM113.132 14.2354C112.474 14.2354 111.933 14.3901 111.508 14.738C111.082 15.086 110.773 15.5113 110.618 16.0526H115.529C115.374 15.434 115.065 14.97 114.601 14.6607C114.137 14.3901 113.634 14.2354 113.132 14.2354Z" fill="black"/>
<path d="M124.963 28.0003H121.483V11.7613H124.963V12.9212C125.195 12.5732 125.62 12.2253 126.162 11.9546C126.742 11.684 127.36 11.5293 128.056 11.5293C129.526 11.5293 130.801 12.1093 131.845 13.3079C132.889 14.4678 133.392 15.8984 133.392 17.5223C133.392 19.1462 132.889 20.5768 131.845 21.7367C130.801 22.8966 129.564 23.5152 128.056 23.5152C127.36 23.5152 126.703 23.3606 126.162 23.0899C125.62 22.8193 125.195 22.4713 124.963 22.1233V28.0003ZM125.388 19.4941C125.852 20.0354 126.51 20.3061 127.283 20.3061C128.056 20.3061 128.675 20.0354 129.178 19.4941C129.642 18.9528 129.912 18.2956 129.912 17.4449C129.912 16.633 129.68 15.937 129.178 15.3957C128.714 14.8544 128.056 14.5838 127.283 14.5838C126.51 14.5838 125.891 14.8544 125.388 15.3957C124.925 15.937 124.654 16.5943 124.654 17.4449C124.654 18.2956 124.925 18.9528 125.388 19.4941Z" fill="black"/>
<path d="M140.932 23.4375C139.153 23.4375 137.684 22.8575 136.563 21.7363C135.441 20.615 134.861 19.1844 134.861 17.4445C134.861 15.7433 135.441 14.3127 136.601 13.1915C137.761 12.0702 139.192 11.4902 140.932 11.4902C141.782 11.4902 142.556 11.6449 143.29 11.9155C144.025 12.2249 144.682 12.6115 145.262 13.1915C145.842 13.7328 146.267 14.4674 146.615 15.318C146.925 16.2073 147.079 17.1739 147.041 18.2565H138.225C138.302 18.8751 138.573 19.4164 139.037 19.8417C139.54 20.267 140.197 20.4604 141.086 20.4604C141.589 20.4604 142.053 20.3444 142.478 20.151C142.904 19.9577 143.174 19.6871 143.29 19.3778H146.925C146.577 20.5763 145.842 21.5816 144.721 22.3162C143.638 23.0895 142.362 23.4375 140.932 23.4375ZM140.816 14.2354C140.158 14.2354 139.617 14.3901 139.192 14.738C138.766 15.086 138.457 15.5113 138.302 16.0526H143.213C143.058 15.434 142.749 14.97 142.285 14.6607C141.821 14.3901 141.357 14.2354 140.816 14.2354Z" fill="black"/>
<path d="M149.205 23.2053V11.722H152.685V13.4233C152.878 12.9206 153.226 12.4567 153.729 12.1087C154.232 11.7607 154.812 11.5674 155.43 11.5674C155.817 11.5674 156.203 11.606 156.551 11.722V15.2405C156.01 15.0472 155.507 14.9698 155.005 14.9698C154.27 14.9698 153.69 15.2405 153.304 15.7431C152.917 16.2458 152.685 16.9417 152.685 17.7537V23.2053H149.205Z" fill="black"/>
<path d="M14.9244 27.7685H6.61159C2.97715 27.7685 0 24.7913 0 21.1569V12.844C0 9.20958 2.97715 6.23242 6.61159 6.23242H14.9244C18.5589 6.23242 21.536 9.20958 21.536 12.844V21.1569C21.536 24.7913 18.5589 27.7685 14.9244 27.7685Z" fill="#231815"/>
<path d="M6.14734 14.0422C3.98214 16.2074 3.98214 19.6872 6.14734 21.8524C8.31254 24.0176 11.7923 24.0176 13.9575 21.8524L13.9962 21.8137L6.186 13.9648C6.14734 14.0035 6.14734 14.0035 6.14734 14.0422Z" fill="white"/>
<path d="M10.0526 10.0992C7.88741 12.2644 7.88741 15.7442 10.0526 17.9094C12.2178 20.0746 15.6976 20.0746 17.8628 17.9094L17.9015 17.8707L10.1299 10.0605C10.0913 10.0605 10.0913 10.0605 10.0526 10.0992Z" fill="#FF8A00"/>
</svg>
