<svg width="323" height="190" viewBox="0 0 323 190" fill="none" xmlns="http://www.w3.org/2000/svg">
<rect width="323" height="190" rx="8" fill="#FF8A00"/>
<ellipse cx="239.498" cy="121.465" rx="15.5" ry="5.5" fill="#C46A00"/>
<ellipse cx="203.499" cy="121.465" rx="14.5" ry="5.5" fill="black"/>
<circle cx="200.372" cy="109.337" r="16.634" transform="rotate(15 200.372 109.337)" fill="white"/>
<path fill-rule="evenodd" clip-rule="evenodd" d="M212.842 120.347C209.794 123.796 205.338 125.971 200.373 125.971C195.409 125.971 190.952 123.796 187.904 120.347C192.097 118.336 194.991 114.052 194.991 109.092C194.991 104.254 192.237 100.059 188.211 97.9894C191.247 94.7367 195.573 92.7031 200.373 92.7031C205.174 92.7031 209.499 94.7366 212.535 97.9893C208.509 100.059 205.754 104.254 205.754 109.092C205.754 114.053 208.649 118.337 212.842 120.347ZM213.6 99.2487C215.737 102.047 217.007 105.544 217.007 109.337C217.007 112.967 215.845 116.325 213.872 119.059C210.035 117.379 207.354 113.549 207.354 109.092C207.354 104.742 209.909 100.988 213.6 99.2487ZM193.391 109.092C193.391 113.549 190.711 117.379 186.875 119.059C184.902 116.325 183.739 112.967 183.739 109.337C183.739 105.544 185.009 102.047 187.147 99.2488C190.837 100.988 193.391 104.742 193.391 109.092Z" fill="#FFBE3F"/>
<circle cx="236.371" cy="109.339" r="16.634" transform="rotate(60 236.371 109.339)" fill="#FF8A00"/>
<path fill-rule="evenodd" clip-rule="evenodd" d="M248.84 120.347C245.792 123.796 241.336 125.971 236.371 125.971C231.407 125.971 226.95 123.796 223.902 120.347C228.095 118.336 230.99 114.052 230.99 109.092C230.99 104.254 228.235 100.059 224.209 97.9894C227.245 94.7367 231.571 92.7031 236.371 92.7031C241.172 92.7031 245.497 94.7366 248.533 97.9893C244.507 100.059 241.752 104.254 241.752 109.092C241.752 114.053 244.647 118.337 248.84 120.347ZM249.598 99.2487C251.736 102.047 253.005 105.544 253.005 109.337C253.005 112.967 251.843 116.325 249.87 119.059C246.033 117.379 243.352 113.549 243.352 109.092C243.352 104.742 245.907 100.988 249.598 99.2487ZM229.39 109.092C229.39 113.549 226.709 117.379 222.873 119.059C220.9 116.325 219.737 112.967 219.737 109.337C219.737 105.544 221.007 102.047 223.145 99.2488C226.835 100.988 229.39 104.742 229.39 109.092Z" fill="#FFB054"/>
<path d="M38.886 39.262V37.966H32.55V35.482H37.554V34.186H27.978V31.72H37.122V26.824H26.358V28.12H35.538V30.424H26.394V35.482H30.948V37.966H24.684V39.262H38.886ZM52.9302 29.686C52.9302 27.616 50.8062 26.176 47.3322 26.176C43.8582 26.176 41.7522 27.616 41.7522 29.686C41.7522 31.774 43.8582 33.232 47.3322 33.232C50.8062 33.232 52.9302 31.774 52.9302 29.686ZM47.3322 27.526C49.8342 27.526 51.3282 28.516 51.3282 29.686C51.3282 30.874 49.8342 31.882 47.3322 31.882C44.8122 31.882 43.3182 30.874 43.3182 29.686C43.3182 28.516 44.8122 27.526 47.3322 27.526ZM48.1242 41.278V35.842H54.4602V34.528H40.2582V35.842H46.5222V41.278H48.1242ZM65.8404 35.716C63.9324 36.076 60.8904 36.202 58.6944 36.202H58.2264V32.638H64.1124V26.95H56.5704V28.246H62.5284V31.36H56.6424V37.552H58.6044C61.7904 37.516 64.3644 37.3 66.0024 37.03L65.8404 35.716ZM67.2084 25.528V41.26H68.8104V25.528H67.2084ZM85.1767 33.502C82.7647 33.034 79.3267 30.694 79.3267 28.066V26.842H77.6887V28.066C77.6887 30.712 74.4487 32.998 71.8747 33.448L72.6847 34.744C75.2407 34.078 77.8687 32.08 78.4987 30.298C79.2367 32.062 81.8467 34.06 84.3127 34.762L85.1767 33.502ZM85.6087 39.136V37.84H71.4067V39.136H85.6087ZM99.3469 27.202H88.6909V28.498H97.7089V30.172C97.7089 30.604 97.7089 31.108 97.6729 31.648L88.2409 32.008L88.4749 33.322L97.5649 32.89C97.4389 34.456 97.2229 36.004 97.0609 36.778L98.5729 36.958C99.0229 35.14 99.3289 31.864 99.3469 29.452V27.202ZM101.183 39.046V37.75H86.9809V39.046H101.183ZM121.486 39.262V37.966H115.15V35.482H120.154V34.186H110.578V31.72H119.722V26.824H108.958V28.12H118.138V30.424H108.994V35.482H113.548V37.966H107.284V39.262H121.486ZM135.53 29.686C135.53 27.616 133.406 26.176 129.932 26.176C126.458 26.176 124.352 27.616 124.352 29.686C124.352 31.774 126.458 33.232 129.932 33.232C133.406 33.232 135.53 31.774 135.53 29.686ZM129.932 27.526C132.434 27.526 133.928 28.516 133.928 29.686C133.928 30.874 132.434 31.882 129.932 31.882C127.412 31.882 125.918 30.874 125.918 29.686C125.918 28.516 127.412 27.526 129.932 27.526ZM130.724 41.278V35.842H137.06V34.528H122.858V35.842H129.122V41.278H130.724ZM148.44 35.716C146.532 36.076 143.49 36.202 141.294 36.202H140.826V32.638H146.712V26.95H139.17V28.246H145.128V31.36H139.242V37.552H141.204C144.39 37.516 146.964 37.3 148.602 37.03L148.44 35.716ZM149.808 25.528V41.26H151.41V25.528H149.808ZM166.912 36.994V25.528H165.31V29.956H162.538V31.27H165.31V36.994H166.912ZM167.308 40.774V39.478H158.326V35.968H156.742V40.774H167.308ZM156.256 33.628V31.288H161.386V30.01H156.256V28.012H161.872V26.734H154.672V34.942H156.13C159.028 34.942 161.26 34.834 162.952 34.492L162.772 33.25C161.26 33.574 159.01 33.628 157.066 33.628H156.256Z" fill="white"/>
<rect x="33" y="145" width="95" height="24" rx="6" fill="white"/>
<path d="M54.932 157.256V150.444H53.606V152.888H51.487V153.98H53.606V157.256H54.932ZM55.036 159.739C55.036 158.348 53.606 157.425 51.084 157.425C48.588 157.425 47.158 158.348 47.158 159.739C47.158 161.104 48.588 162.027 51.084 162.027C53.606 162.027 55.036 161.104 55.036 159.739ZM53.658 159.739C53.658 160.493 52.722 160.961 51.084 160.961C49.485 160.961 48.536 160.493 48.536 159.739C48.536 158.972 49.485 158.504 51.084 158.504C52.722 158.504 53.658 158.972 53.658 159.739ZM52.228 155.696C50.915 155.241 49.498 153.902 49.498 152.095V150.99H48.133V152.147C48.133 153.941 46.95 155.332 45.286 155.995L46.092 157.022C47.262 156.567 48.471 155.462 48.822 154.266C49.329 155.384 50.512 156.333 51.461 156.736L52.228 155.696ZM65.803 159.83C65.803 158.491 64.36 157.633 61.786 157.633C59.212 157.633 57.743 158.491 57.743 159.83C57.743 161.156 59.212 162.014 61.786 162.014C64.36 162.014 65.803 161.156 65.803 159.83ZM67.103 156.632V155.579H62.046V153.512H60.707V155.579H56.638V156.632H67.103ZM65.751 150.899H57.873V151.965H64.412C64.438 152.862 64.334 153.915 64.113 154.786L65.4 154.968C65.66 153.85 65.79 152.264 65.751 150.899ZM61.786 158.712C63.411 158.712 64.438 159.102 64.438 159.83C64.438 160.571 63.411 160.948 61.786 160.948C60.148 160.948 59.121 160.571 59.121 159.83C59.121 159.102 60.148 158.712 61.786 158.712ZM80.8431 162.027V150.444H79.5171V162.027H80.8431ZM78.3601 158.348C76.6701 157.282 75.5911 155.488 75.5911 153.265V151.445H74.2131V153.343C74.2131 155.553 73.0691 157.464 71.2751 158.634L72.0941 159.609C73.3681 158.842 74.5251 157.386 74.9151 156.008C75.3441 157.282 76.5791 158.712 77.5671 159.349L78.3601 158.348ZM87.5632 160.519H89.1752V151.536H88.3302L86.0682 152.55V153.486L87.5632 153.187V160.519ZM92.3747 160.519H93.9867V151.536H93.1417L90.8797 152.55V153.486L92.3747 153.187V160.519ZM99.4207 160.623C101.28 160.623 102.866 159.44 102.866 156.307V155.748C102.866 152.615 101.28 151.458 99.4337 151.458C97.6007 151.458 95.9627 152.602 95.9627 155.787V156.346C95.9627 159.375 97.4707 160.623 99.4207 160.623ZM99.4207 159.401C98.2117 159.401 97.6267 158.413 97.6267 156.346V155.657C97.6267 153.577 98.2247 152.693 99.4337 152.693C100.604 152.693 101.215 153.629 101.215 155.748V156.411C101.215 158.543 100.617 159.401 99.4207 159.401ZM105.667 161.026H106.85L112.934 151.367H111.751L105.667 161.026ZM106.317 156.476C107.643 156.476 108.527 155.514 108.527 154.019V153.824C108.527 152.329 107.63 151.471 106.317 151.471C104.991 151.471 104.12 152.42 104.12 153.928V154.097C104.12 155.592 104.991 156.476 106.317 156.476ZM106.317 155.553C105.719 155.553 105.42 155.137 105.42 154.097V153.811C105.42 152.823 105.732 152.381 106.317 152.381C106.915 152.381 107.227 152.836 107.227 153.824V154.11C107.227 155.137 106.941 155.553 106.317 155.553ZM112.427 160.636C113.753 160.636 114.65 159.674 114.65 158.192V157.997C114.65 156.515 113.74 155.644 112.427 155.644C111.101 155.644 110.204 156.593 110.204 158.075V158.257C110.204 159.765 111.101 160.636 112.427 160.636ZM112.427 159.7C111.816 159.7 111.53 159.297 111.53 158.27V157.984C111.53 156.983 111.829 156.567 112.427 156.567C113.012 156.567 113.337 156.996 113.337 157.997V158.283C113.337 159.31 113.038 159.7 112.427 159.7Z" fill="#FF8A00"/>
<rect x="156" y="145" width="134" height="24" rx="6" fill="white"/>
<path d="M178.309 161.936V160.883H171.718V159.882H177.919V156.905H170.34V157.971H176.593V158.894H170.379V161.936H178.309ZM177.919 156.294V150.444H176.593V156.294H177.919ZM175.371 155.163C174.071 154.76 172.628 153.499 172.628 151.692V150.821H171.263V151.744C171.263 153.538 170.054 154.864 168.429 155.462L169.222 156.463C170.405 155.995 171.601 154.968 171.965 153.759C172.485 154.89 173.655 155.787 174.617 156.164L175.371 155.163ZM189.401 162.027V150.444H188.127V154.994H187.061V150.678H185.8V161.468H187.061V156.112H188.127V162.027H189.401ZM185.293 157.906C184.994 157.958 184.565 158.01 184.097 158.036L184.461 153.668L183.174 153.538L182.927 158.114H182.732L181.991 158.153L181.796 153.525L180.522 153.668L180.808 158.192C180.366 158.205 179.911 158.205 179.456 158.205L179.638 159.323C180.574 159.323 181.38 159.284 182.485 159.232C183.538 159.167 184.786 159.05 185.41 158.933L185.293 157.906ZM185.072 152.901V151.822H179.716V152.901H185.072ZM200.428 162.027V150.444H199.102V162.027H200.428ZM197.945 158.348C196.255 157.282 195.176 155.488 195.176 153.265V151.445H193.798V153.343C193.798 155.553 192.654 157.464 190.86 158.634L191.679 159.609C192.953 158.842 194.11 157.386 194.5 156.008C194.929 157.282 196.164 158.712 197.152 159.349L197.945 158.348ZM206.199 160.454H209.345C211.386 160.454 212.4 159.388 212.4 157.919C212.4 156.632 211.672 155.995 210.554 155.787V155.722C211.633 155.384 212.023 154.708 212.023 153.785C212.023 152.381 211.178 151.549 209.111 151.549H206.199V160.454ZM207.538 159.388V156.346H209.124C210.333 156.346 210.983 156.775 210.983 157.841C210.983 158.868 210.372 159.388 209.189 159.388H207.538ZM207.538 155.371V152.615H208.955C210.073 152.615 210.658 152.94 210.658 153.98C210.658 155.033 209.891 155.371 208.877 155.371H207.538ZM215.45 160.571C216.308 160.571 216.854 160.285 217.166 159.895H217.244L217.361 160.454H218.414V155.657C218.414 154.318 217.543 153.694 216.048 153.694C215.229 153.694 214.553 153.824 213.942 154.071V154.968C214.345 154.877 214.891 154.773 215.541 154.773C216.711 154.773 217.127 154.994 217.127 155.982V156.554L215.463 156.749C214.176 156.918 213.396 157.503 213.396 158.686C213.396 159.973 214.254 160.571 215.45 160.571ZM215.788 159.635C215.125 159.635 214.696 159.31 214.696 158.634C214.696 157.945 215.047 157.659 215.749 157.581L217.127 157.438V159.206C216.867 159.453 216.334 159.635 215.788 159.635ZM220.123 160.454H221.397V150.964H220.123V160.454ZM223.208 160.454H224.482V150.964H223.208V160.454ZM239.12 161.936V160.883H232.542V159.908H238.743V156.931H231.151V158.01H237.417V158.92H231.203V161.936H239.12ZM229.604 152.095H232.009C231.97 153.772 230.748 154.981 229.149 155.579L229.942 156.606C231.112 156.164 232.36 155.098 232.698 153.967C233.192 154.981 234.336 155.93 235.285 156.268L236.026 155.228C234.7 154.812 233.426 153.746 233.387 152.095H235.688V151.003H229.604V152.095ZM238.73 156.333V150.444H237.404V152.901H235.532V153.993H237.404V156.333H238.73ZM249.445 150.444H248.106V158.816H249.445V154.864H251.148V153.746H249.445V150.444ZM249.783 161.676V160.597H243.348V158.036H242.009V161.676H249.783ZM246.156 157.009V151.185H244.83V153.109H242.113V151.211H240.774V157.009H246.156ZM244.83 155.956H242.113V154.136H244.83V155.956ZM261.352 153.629C261.352 152.069 260.078 150.925 258.388 150.925C256.698 150.925 255.424 152.095 255.424 153.642C255.424 155.215 256.763 156.229 258.388 156.229C260.078 156.229 261.352 155.176 261.352 153.629ZM260.052 153.629C260.052 154.422 259.389 155.137 258.388 155.137C257.439 155.137 256.737 154.461 256.737 153.629C256.737 152.758 257.478 152.056 258.388 152.056C259.415 152.056 260.052 152.758 260.052 153.629ZM263.315 150.444V156.242H264.641V150.444H263.315ZM260.429 160.779C259.727 160.935 258.843 161 257.738 161V160.064H260.078V157.282H256.451V158.257H258.817V159.128H256.464V161.975H257.842C258.921 161.949 259.909 161.897 260.559 161.754L260.429 160.779ZM264.147 157.724V156.736H261.534V157.724H264.147ZM265.2 159.063V158.088H260.481V159.063H265.2ZM264.771 160.74C264.771 159.921 263.978 159.323 262.834 159.323C261.703 159.323 260.897 159.908 260.897 160.727C260.897 161.559 261.703 162.131 262.834 162.131C263.978 162.131 264.771 161.559 264.771 160.74ZM263.614 160.727C263.614 161.065 263.276 161.247 262.834 161.247C262.379 161.247 262.054 161.065 262.054 160.727C262.054 160.415 262.379 160.207 262.834 160.207C263.276 160.207 263.614 160.415 263.614 160.727ZM276.825 156.879V155.8H266.36V156.879H276.825ZM275.486 161.884V157.945H267.699V161.884H275.486ZM274.16 160.818H269.025V158.985H274.16V160.818ZM275.603 152.784C275.603 151.484 274.16 150.587 271.586 150.587C269.038 150.587 267.595 151.484 267.595 152.784C267.595 154.11 269.038 154.981 271.599 154.981C274.16 154.981 275.603 154.11 275.603 152.784ZM274.238 152.784C274.238 153.512 273.211 153.954 271.586 153.954C269.935 153.954 268.947 153.512 268.947 152.784C268.947 152.069 269.935 151.64 271.586 151.64C273.25 151.64 274.238 152.069 274.238 152.784Z" fill="#FF8A00"/>
<ellipse cx="98.499" cy="121.465" rx="15.5" ry="5.5" fill="black"/>
<ellipse cx="62.5" cy="121.465" rx="14.5" ry="5.5" fill="black"/>
<circle cx="59.3733" cy="109.337" r="16.634" transform="rotate(15 59.3733 109.337)" fill="white"/>
<path fill-rule="evenodd" clip-rule="evenodd" d="M71.8429 120.347C68.7951 123.796 64.3386 125.971 59.3742 125.971C54.4096 125.971 49.9531 123.796 46.9053 120.347C51.0976 118.336 53.9925 114.052 53.9925 109.092C53.9925 104.254 51.2381 100.059 47.2119 97.9894C50.2481 94.7367 54.5737 92.7031 59.3742 92.7031C64.1747 92.7031 68.5002 94.7366 71.5364 97.9893C67.5099 100.059 64.7553 104.254 64.7553 109.092C64.7553 114.053 67.6503 118.337 71.8429 120.347ZM72.6008 99.2487C74.7384 102.047 76.0082 105.544 76.0082 109.337C76.0082 112.967 74.8457 116.325 72.8727 119.059C69.0359 117.379 66.3553 113.549 66.3553 109.092C66.3553 104.742 68.9099 100.988 72.6008 99.2487ZM52.3925 109.092C52.3925 113.549 49.7121 117.379 45.8755 119.059C43.9027 116.325 42.7402 112.967 42.7402 109.337C42.7402 105.544 44.0099 102.047 46.1475 99.2488C49.8382 100.988 52.3925 104.742 52.3925 109.092Z" fill="#FFBE3F"/>
<circle cx="95.3714" cy="109.339" r="16.634" transform="rotate(15 95.3714 109.339)" fill="white"/>
<path fill-rule="evenodd" clip-rule="evenodd" d="M107.841 120.347C104.793 123.796 100.337 125.971 95.3723 125.971C90.4077 125.971 85.9511 123.796 82.9033 120.347C87.0957 118.336 89.9905 114.052 89.9905 109.092C89.9905 104.254 87.2362 100.059 83.21 97.9894C86.2461 94.7367 90.5717 92.7031 95.3723 92.7031C100.173 92.7031 104.498 94.7366 107.534 97.9893C103.508 100.059 100.753 104.254 100.753 109.092C100.753 114.053 103.648 118.337 107.841 120.347ZM108.599 99.2487C110.736 102.047 112.006 105.544 112.006 109.337C112.006 112.967 110.844 116.325 108.871 119.059C105.034 117.379 102.353 113.549 102.353 109.092C102.353 104.742 104.908 100.988 108.599 99.2487ZM88.3905 109.092C88.3905 113.549 85.7101 117.379 81.8736 119.059C79.9007 116.325 78.7383 112.967 78.7383 109.337C78.7383 105.544 80.008 102.047 82.1456 99.2488C85.8362 100.988 88.3905 104.742 88.3905 109.092Z" fill="#FFBE3F"/>
<rect x="97.999" y="73.7441" width="6.36121" height="4.54372" transform="rotate(-36.0564 97.999 73.7441)" fill="black"/>
<rect x="33.0244" y="87.4902" width="6.36121" height="4.54372" transform="rotate(-142.176 33.0244 87.4902)" fill="black"/>
<rect x="129.681" y="82.873" width="6.36121" height="4.54372" transform="rotate(101.08 129.681 82.873)" fill="white"/>
<rect x="58.5635" y="62" width="6.36121" height="4.54372" transform="rotate(51.6648 58.5635 62)" fill="white"/>
</svg>
