<svg width="323" height="190" viewBox="0 0 323 190" fill="none" xmlns="http://www.w3.org/2000/svg">
<rect width="323" height="190" rx="8" fill="#FF8A00"/>
<rect x="124.004" y="70.7441" width="6.36121" height="4.54372" transform="rotate(-36.0564 124.004 70.7441)" fill="black"/>
<rect x="24.0293" y="99.8594" width="6.36121" height="4.54372" transform="rotate(-84.1715 24.0293 99.8594)" fill="black"/>
<rect x="36.0039" y="67.2109" width="6.36121" height="4.54372" transform="rotate(-1.89808 36.0039 67.2109)" fill="white"/>
<rect x="144.686" y="91.873" width="6.36121" height="4.54372" transform="rotate(101.08 144.686 91.873)" fill="white"/>
<ellipse cx="104.5" cy="121.465" rx="15.5" ry="5.5" fill="black"/>
<ellipse cx="82.5" cy="121.465" rx="15.5" ry="5.5" fill="black"/>
<ellipse cx="63.5" cy="121.465" rx="14.5" ry="5.5" fill="black"/>
<circle cx="66.3723" cy="109.337" r="16.634" transform="rotate(15 66.3723 109.337)" fill="white"/>
<path fill-rule="evenodd" clip-rule="evenodd" d="M75.5664 123.2C71.7299 125.742 66.8624 126.689 62.0672 125.404C57.2718 124.119 53.5299 120.865 51.4787 116.745C56.0486 115.888 59.9536 112.499 61.2374 107.708C62.4896 103.034 60.9149 98.2692 57.5615 95.2283C61.3361 92.8723 66.0406 92.0276 70.6775 93.27C75.3144 94.5125 78.9663 97.5962 81.0571 101.524C76.6323 102.48 72.8858 105.82 71.6335 110.493C70.3496 115.285 72.0371 120.172 75.5664 123.2ZM81.7593 103.016C83.0999 106.272 83.4213 109.978 82.4395 113.642C81.5001 117.148 79.5081 120.091 76.8945 122.222C73.6233 119.606 72.0255 115.212 73.1789 110.908C74.3049 106.705 77.744 103.74 81.7593 103.016ZM59.6919 107.294C58.5385 111.598 54.9581 114.604 50.8174 115.234C49.6195 112.082 49.3658 108.538 50.3052 105.032C51.2869 101.368 53.4184 98.3191 56.2074 96.1694C59.3221 98.8046 60.8178 103.091 59.6919 107.294Z" fill="#FFBE3F"/>
<circle cx="100.373" cy="109.339" r="16.634" transform="rotate(15 100.373 109.339)" fill="white"/>
<circle cx="83.4075" cy="80.3724" r="16.634" transform="rotate(15 83.4075 80.3724)" fill="white"/>
<path fill-rule="evenodd" clip-rule="evenodd" d="M116.995 109.969C116.819 114.568 114.745 119.073 110.902 122.215C107.058 125.358 102.231 126.495 97.6889 125.754C99.6618 121.543 99.1913 116.394 96.0517 112.554C92.9892 108.808 88.2016 107.304 83.7747 108.25C84.0664 103.81 86.1281 99.4982 89.8446 96.4596C93.561 93.4211 98.1969 92.2576 102.606 92.8539C100.799 97.0045 101.322 101.996 104.384 105.742C107.524 109.582 112.477 111.066 116.995 109.969ZM104.227 93.1552C107.654 93.9686 110.85 95.872 113.251 98.8088C115.548 101.619 116.774 104.954 116.977 108.32C112.944 109.448 108.444 108.179 105.623 104.729C102.869 101.361 102.471 96.8378 104.227 93.1552ZM94.813 113.567C97.6337 117.017 97.9831 121.679 96.0763 125.408C92.8181 124.54 89.7927 122.676 87.4954 119.866C85.0945 116.929 83.8642 113.419 83.7478 109.899C87.7059 108.91 92.0594 110.199 94.813 113.567Z" fill="#FFBE3F"/>
<path fill-rule="evenodd" clip-rule="evenodd" d="M96.2164 90.9811C93.2785 94.5241 88.8927 96.8379 83.9307 96.994C78.9686 97.1501 74.4458 95.1165 71.2911 91.765C75.4182 89.6234 78.1768 85.2504 78.0208 80.2927C77.8687 75.4567 74.9838 71.3504 70.8945 69.4087C73.8269 66.0621 78.0864 63.8935 82.8845 63.7425C87.6826 63.5916 92.07 65.4881 95.2069 68.6436C91.2475 70.8384 88.6262 75.1182 88.7784 79.9543C88.9344 84.9123 91.9626 89.1033 96.2164 90.9811ZM96.3104 69.869C98.535 72.5987 99.9141 76.0538 100.033 79.8452C100.148 83.473 99.0912 86.866 97.2051 89.6612C93.3174 88.1027 90.5177 84.3584 90.3776 79.904C90.2408 75.5556 92.676 71.7233 96.3104 69.869ZM76.4216 80.343C76.5618 84.7972 74.0032 88.7099 70.2213 90.5099C68.1635 87.8388 66.896 84.519 66.7819 80.8914C66.6626 77.1 67.8217 73.5651 69.8702 70.701C73.6137 72.3233 76.2848 75.9948 76.4216 80.343Z" fill="#FFBE3F"/>
<rect x="36" y="145" width="96" height="24" rx="6" fill="white"/>
<path d="M57.932 157.256V150.444H56.606V152.888H54.487V153.98H56.606V157.256H57.932ZM58.036 159.739C58.036 158.348 56.606 157.425 54.084 157.425C51.588 157.425 50.158 158.348 50.158 159.739C50.158 161.104 51.588 162.027 54.084 162.027C56.606 162.027 58.036 161.104 58.036 159.739ZM56.658 159.739C56.658 160.493 55.722 160.961 54.084 160.961C52.485 160.961 51.536 160.493 51.536 159.739C51.536 158.972 52.485 158.504 54.084 158.504C55.722 158.504 56.658 158.972 56.658 159.739ZM55.228 155.696C53.915 155.241 52.498 153.902 52.498 152.095V150.99H51.133V152.147C51.133 153.941 49.95 155.332 48.286 155.995L49.092 157.022C50.262 156.567 51.471 155.462 51.822 154.266C52.329 155.384 53.512 156.333 54.461 156.736L55.228 155.696ZM68.803 159.83C68.803 158.491 67.36 157.633 64.786 157.633C62.212 157.633 60.743 158.491 60.743 159.83C60.743 161.156 62.212 162.014 64.786 162.014C67.36 162.014 68.803 161.156 68.803 159.83ZM70.103 156.632V155.579H65.046V153.512H63.707V155.579H59.638V156.632H70.103ZM68.751 150.899H60.873V151.965H67.412C67.438 152.862 67.334 153.915 67.113 154.786L68.4 154.968C68.66 153.85 68.79 152.264 68.751 150.899ZM64.786 158.712C66.411 158.712 67.438 159.102 67.438 159.83C67.438 160.571 66.411 160.948 64.786 160.948C63.148 160.948 62.121 160.571 62.121 159.83C62.121 159.102 63.148 158.712 64.786 158.712ZM83.8431 162.027V150.444H82.5171V162.027H83.8431ZM81.3601 158.348C79.6701 157.282 78.5911 155.488 78.5911 153.265V151.445H77.2131V153.343C77.2131 155.553 76.0691 157.464 74.2751 158.634L75.0941 159.609C76.3681 158.842 77.5251 157.386 77.9151 156.008C78.3441 157.282 79.5791 158.712 80.5671 159.349L81.3601 158.348ZM90.5632 160.519H92.1752V151.536H91.3302L89.0682 152.55V153.486L90.5632 153.187V160.519ZM96.3872 160.597C98.4152 160.597 99.6242 159.31 99.6242 157.659C99.6242 155.774 98.5192 154.864 96.7382 154.864C96.4002 154.864 95.9192 154.942 95.6202 155.02L95.7892 152.849H99.2212V151.601H94.5672L94.2422 156.502C94.6582 156.294 95.4902 156.021 96.0492 156.021C97.2712 156.021 97.9732 156.489 97.9732 157.62C97.9732 158.699 97.2192 159.297 95.9842 159.297C95.2952 159.297 94.6192 159.05 94.1382 158.764L93.8522 159.986C94.4242 160.337 95.3732 160.597 96.3872 160.597ZM104.274 160.623C106.133 160.623 107.719 159.44 107.719 156.307V155.748C107.719 152.615 106.133 151.458 104.287 151.458C102.454 151.458 100.816 152.602 100.816 155.787V156.346C100.816 159.375 102.324 160.623 104.274 160.623ZM104.274 159.401C103.065 159.401 102.48 158.413 102.48 156.346V155.657C102.48 153.577 103.078 152.693 104.287 152.693C105.457 152.693 106.068 153.629 106.068 155.748V156.411C106.068 158.543 105.47 159.401 104.274 159.401ZM110.521 161.026H111.704L117.788 151.367H116.605L110.521 161.026ZM111.171 156.476C112.497 156.476 113.381 155.514 113.381 154.019V153.824C113.381 152.329 112.484 151.471 111.171 151.471C109.845 151.471 108.974 152.42 108.974 153.928V154.097C108.974 155.592 109.845 156.476 111.171 156.476ZM111.171 155.553C110.573 155.553 110.274 155.137 110.274 154.097V153.811C110.274 152.823 110.586 152.381 111.171 152.381C111.769 152.381 112.081 152.836 112.081 153.824V154.11C112.081 155.137 111.795 155.553 111.171 155.553ZM117.281 160.636C118.607 160.636 119.504 159.674 119.504 158.192V157.997C119.504 156.515 118.594 155.644 117.281 155.644C115.955 155.644 115.058 156.593 115.058 158.075V158.257C115.058 159.765 115.955 160.636 117.281 160.636ZM117.281 159.7C116.67 159.7 116.384 159.297 116.384 158.27V157.984C116.384 156.983 116.683 156.567 117.281 156.567C117.866 156.567 118.191 156.996 118.191 157.997V158.283C118.191 159.31 117.892 159.7 117.281 159.7Z" fill="#FF8A00"/>
<rect x="179" y="145" width="108" height="24" rx="6" fill="white"/>
<path d="M201.309 161.936V160.883H194.718V159.882H200.919V156.905H193.34V157.971H199.593V158.894H193.379V161.936H201.309ZM200.919 156.294V150.444H199.593V156.294H200.919ZM198.371 155.163C197.071 154.76 195.628 153.499 195.628 151.692V150.821H194.263V151.744C194.263 153.538 193.054 154.864 191.429 155.462L192.222 156.463C193.405 155.995 194.601 154.968 194.965 153.759C195.485 154.89 196.655 155.787 197.617 156.164L198.371 155.163ZM212.401 162.027V150.444H211.127V154.994H210.061V150.678H208.8V161.468H210.061V156.112H211.127V162.027H212.401ZM208.293 157.906C207.994 157.958 207.565 158.01 207.097 158.036L207.461 153.668L206.174 153.538L205.927 158.114H205.732L204.991 158.153L204.796 153.525L203.522 153.668L203.808 158.192C203.366 158.205 202.911 158.205 202.456 158.205L202.638 159.323C203.574 159.323 204.38 159.284 205.485 159.232C206.538 159.167 207.786 159.05 208.41 158.933L208.293 157.906ZM208.072 152.901V151.822H202.716V152.901H208.072ZM223.428 162.027V150.444H222.102V162.027H223.428ZM220.945 158.348C219.255 157.282 218.176 155.488 218.176 153.265V151.445H216.798V153.343C216.798 155.553 215.654 157.464 213.86 158.634L214.679 159.609C215.953 158.842 217.11 157.386 217.5 156.008C217.929 157.282 219.164 158.712 220.152 159.349L220.945 158.348ZM229.199 160.454H232.345C234.386 160.454 235.4 159.388 235.4 157.919C235.4 156.632 234.672 155.995 233.554 155.787V155.722C234.633 155.384 235.023 154.708 235.023 153.785C235.023 152.381 234.178 151.549 232.111 151.549H229.199V160.454ZM230.538 159.388V156.346H232.124C233.333 156.346 233.983 156.775 233.983 157.841C233.983 158.868 233.372 159.388 232.189 159.388H230.538ZM230.538 155.371V152.615H231.955C233.073 152.615 233.658 152.94 233.658 153.98C233.658 155.033 232.891 155.371 231.877 155.371H230.538ZM238.45 160.571C239.308 160.571 239.854 160.285 240.166 159.895H240.244L240.361 160.454H241.414V155.657C241.414 154.318 240.543 153.694 239.048 153.694C238.229 153.694 237.553 153.824 236.942 154.071V154.968C237.345 154.877 237.891 154.773 238.541 154.773C239.711 154.773 240.127 154.994 240.127 155.982V156.554L238.463 156.749C237.176 156.918 236.396 157.503 236.396 158.686C236.396 159.973 237.254 160.571 238.45 160.571ZM238.788 159.635C238.125 159.635 237.696 159.31 237.696 158.634C237.696 157.945 238.047 157.659 238.749 157.581L240.127 157.438V159.206C239.867 159.453 239.334 159.635 238.788 159.635ZM243.123 160.454H244.397V150.964H243.123V160.454ZM246.208 160.454H247.482V150.964H246.208V160.454ZM260.404 154.162V156.71H261.73V150.444H260.404V153.044H258.675V154.162H260.404ZM257.531 161.871V157.36H256.27V158.66H254.71V157.373H253.449V161.871H257.531ZM256.27 160.87H254.71V159.648H256.27V160.87ZM262.744 161.13C261.457 160.571 260.872 159.362 260.872 158.114V157.295H259.585V158.114C259.585 159.492 258.987 160.675 257.7 161.208L258.506 162.105C259.286 161.702 260.079 160.844 260.235 160.142C260.378 160.779 261.275 161.741 261.99 162.053L262.744 161.13ZM255.243 150.899C253.566 150.899 252.292 152.082 252.292 153.629C252.292 155.215 253.631 156.268 255.243 156.268C256.933 156.268 258.22 155.176 258.22 153.629C258.22 152.056 256.933 150.899 255.243 150.899ZM255.243 152.03C256.257 152.03 256.894 152.745 256.894 153.616C256.894 154.422 256.244 155.15 255.243 155.15C254.307 155.15 253.605 154.474 253.605 153.616C253.605 152.745 254.346 152.03 255.243 152.03ZM273.914 156.879V155.8H263.449V156.879H273.914ZM272.575 161.884V157.945H264.788V161.884H272.575ZM271.249 160.818H266.114V158.985H271.249V160.818ZM272.692 152.784C272.692 151.484 271.249 150.587 268.675 150.587C266.127 150.587 264.684 151.484 264.684 152.784C264.684 154.11 266.127 154.981 268.688 154.981C271.249 154.981 272.692 154.11 272.692 152.784ZM271.327 152.784C271.327 153.512 270.3 153.954 268.675 153.954C267.024 153.954 266.036 153.512 266.036 152.784C266.036 152.069 267.024 151.64 268.675 151.64C270.339 151.64 271.327 152.069 271.327 152.784Z" fill="#FF8A00"/>
<path d="M39.336 33.412V32.08H36.834V25.528H35.232V41.26H36.834V33.412H39.336ZM31.632 27.85V26.554H26.934V27.85H31.632ZM33.918 30.55V29.272H24.594V30.55H33.918ZM33.036 34.762C33.036 32.872 31.56 31.432 29.328 31.432C27.096 31.432 25.602 32.908 25.602 34.762C25.602 36.652 27.096 38.056 29.328 38.056C31.56 38.056 33.036 36.616 33.036 34.762ZM31.47 34.762C31.47 35.914 30.624 36.724 29.328 36.724C28.086 36.724 27.204 35.914 27.204 34.762C27.204 33.592 28.104 32.764 29.328 32.764C30.552 32.764 31.47 33.592 31.47 34.762ZM53.2362 41.26V25.528H51.6342V41.26H53.2362ZM40.8162 32.26C40.8162 35.392 42.0762 37.84 44.8662 37.84C47.6562 37.84 48.8982 35.392 48.8982 32.278C48.8982 29.146 47.6562 26.716 44.8662 26.716C42.0762 26.716 40.8162 29.146 40.8162 32.26ZM47.3142 32.278C47.3142 34.708 46.4862 36.454 44.8662 36.454C43.2642 36.454 42.4362 34.708 42.4362 32.278C42.4362 29.848 43.2642 28.084 44.8662 28.084C46.4862 28.084 47.3142 29.848 47.3142 32.278ZM65.8404 35.716C63.9324 36.076 60.8904 36.202 58.6944 36.202H58.2264V32.638H64.1124V26.95H56.5704V28.246H62.5284V31.36H56.6424V37.552H58.6044C61.7904 37.516 64.3644 37.3 66.0024 37.03L65.8404 35.716ZM67.2084 25.528V41.26H68.8104V25.528H67.2084ZM85.1767 33.502C82.7647 33.034 79.3267 30.694 79.3267 28.066V26.842H77.6887V28.066C77.6887 30.712 74.4487 32.998 71.8747 33.448L72.6847 34.744C75.2407 34.078 77.8687 32.08 78.4987 30.298C79.2367 32.062 81.8467 34.06 84.3127 34.762L85.1767 33.502ZM85.6087 39.136V37.84H71.4067V39.136H85.6087ZM99.3469 27.202H88.6909V28.498H97.7089V30.172C97.7089 30.604 97.7089 31.108 97.6729 31.648L88.2409 32.008L88.4749 33.322L97.5649 32.89C97.4389 34.456 97.2229 36.004 97.0609 36.778L98.5729 36.958C99.0229 35.14 99.3289 31.864 99.3469 29.452V27.202ZM101.183 39.046V37.75H86.9809V39.046H101.183ZM121.936 33.412V32.08H119.434V25.528H117.832V41.26H119.434V33.412H121.936ZM114.232 27.85V26.554H109.534V27.85H114.232ZM116.518 30.55V29.272H107.194V30.55H116.518ZM115.636 34.762C115.636 32.872 114.16 31.432 111.928 31.432C109.696 31.432 108.202 32.908 108.202 34.762C108.202 36.652 109.696 38.056 111.928 38.056C114.16 38.056 115.636 36.616 115.636 34.762ZM114.07 34.762C114.07 35.914 113.224 36.724 111.928 36.724C110.686 36.724 109.804 35.914 109.804 34.762C109.804 33.592 110.704 32.764 111.928 32.764C113.152 32.764 114.07 33.592 114.07 34.762ZM135.836 41.26V25.528H134.234V41.26H135.836ZM123.416 32.26C123.416 35.392 124.676 37.84 127.466 37.84C130.256 37.84 131.498 35.392 131.498 32.278C131.498 29.146 130.256 26.716 127.466 26.716C124.676 26.716 123.416 29.146 123.416 32.26ZM129.914 32.278C129.914 34.708 129.086 36.454 127.466 36.454C125.864 36.454 125.036 34.708 125.036 32.278C125.036 29.848 125.864 28.084 127.466 28.084C129.086 28.084 129.914 29.848 129.914 32.278ZM148.44 35.716C146.532 36.076 143.49 36.202 141.294 36.202H140.826V32.638H146.712V26.95H139.17V28.246H145.128V31.36H139.242V37.552H141.204C144.39 37.516 146.964 37.3 148.602 37.03L148.44 35.716ZM149.808 25.528V41.26H151.41V25.528H149.808ZM166.912 36.994V25.528H165.31V29.956H162.538V31.27H165.31V36.994H166.912ZM167.308 40.774V39.478H158.326V35.968H156.742V40.774H167.308ZM156.256 33.628V31.288H161.386V30.01H156.256V28.012H161.872V26.734H154.672V34.942H156.13C159.028 34.942 161.26 34.834 162.952 34.492L162.772 33.25C161.26 33.574 159.01 33.628 157.066 33.628H156.256Z" fill="white"/>
<ellipse cx="234.395" cy="120.396" rx="15.5" ry="5.5" fill="#C46A00"/>
<circle cx="231.267" cy="108.269" r="16.634" transform="rotate(60 231.267 108.269)" fill="#FF8A00"/>
<path fill-rule="evenodd" clip-rule="evenodd" d="M243.736 119.278C240.689 122.727 236.232 124.902 231.268 124.902C226.303 124.902 221.847 122.727 218.799 119.278C222.991 117.267 225.886 112.983 225.886 108.023C225.886 103.184 223.132 98.9894 219.105 96.9201C222.142 93.6674 226.467 91.6338 231.268 91.6338C236.068 91.6338 240.394 93.6673 243.43 96.9199C239.403 98.9892 236.649 103.184 236.649 108.023C236.649 112.983 239.544 117.267 243.736 119.278ZM244.494 98.1794C246.632 100.978 247.902 104.474 247.902 108.268C247.902 111.897 246.739 115.255 244.766 117.99C240.929 116.31 238.249 112.479 238.249 108.023C238.249 103.672 240.803 99.9185 244.494 98.1794ZM224.286 108.023C224.286 112.479 221.606 116.31 217.769 117.99C215.796 115.255 214.634 111.897 214.634 108.268C214.634 104.475 215.903 100.978 218.041 98.1795C221.732 99.9187 224.286 103.672 224.286 108.023Z" fill="#FFB054"/>
</svg>
