<svg width="277" height="157" viewBox="0 0 277 157" fill="none" xmlns="http://www.w3.org/2000/svg">
<path d="M0 8C0 3.58172 3.58172 0 8 0H269C273.418 0 277 3.58172 277 8V157H0V8Z" fill="#FFE8E8"/>
<circle cx="137.752" cy="96.7539" r="32.5" fill="#FFE8E8"/>
<path fill-rule="evenodd" clip-rule="evenodd" d="M162.083 118.223C156.105 124.987 147.364 129.253 137.626 129.253C127.888 129.253 119.147 124.986 113.169 118.221C121.392 114.277 127.069 105.874 127.069 96.145C127.069 86.6554 121.668 78.4275 113.771 74.3684C119.726 67.9886 128.211 64 137.626 64C147.043 64 155.527 67.989 161.482 74.3693C153.585 78.428 148.182 86.6565 148.182 96.1469C148.182 105.876 153.86 114.279 162.083 118.223ZM163.653 116.305C155.95 112.86 150.582 105.13 150.582 96.1469C150.582 87.3782 155.696 79.804 163.104 76.2437C167.577 81.828 170.253 88.9147 170.253 96.6263C170.253 104.017 167.795 110.834 163.653 116.305ZM124.669 96.145C124.669 105.129 119.302 112.859 111.599 116.303C107.457 110.833 105 104.016 105 96.6263C105 88.9143 107.676 81.8272 112.15 76.2428C119.557 79.8034 124.669 87.3771 124.669 96.145Z" fill="#E0BCBC"/>
<path fill-rule="evenodd" clip-rule="evenodd" d="M181.798 57.7972C181.452 56.9407 180.229 56.9715 179.926 57.8443L176.316 68.2551C175.569 70.4093 174.382 72.5148 174.44 74.7942C174.535 78.5757 177.678 81.564 181.459 81.4688C185.241 81.3735 188.229 78.2308 188.134 74.4493C188.076 72.1593 186.775 70.1078 185.917 67.9841L181.798 57.7972Z" fill="#E0BCBC"/>
</svg>
