<svg width="277" height="157" viewBox="0 0 277 157" fill="none" xmlns="http://www.w3.org/2000/svg">
<mask id="mask0_5002_9089" style="mask-type:alpha" maskUnits="userSpaceOnUse" x="0" y="0" width="277" height="157">
<path d="M0 8C0 3.58172 3.58172 0 8 0H269C273.418 0 277 3.58172 277 8V157H0V8Z" fill="#FFEEDB"/>
</mask>
<g mask="url(#mask0_5002_9089)">
<rect x="-15" y="-10" width="309" height="179" fill="#E7E7E7"/>
<path fill-rule="evenodd" clip-rule="evenodd" d="M144.794 111.973C133.143 119.694 118.36 122.571 103.797 118.669C89.2333 114.767 77.8692 104.883 71.6394 92.3697C85.5184 89.7665 97.378 79.4743 101.277 64.9232C105.08 50.7295 100.298 36.258 90.113 27.0227C101.577 19.8672 115.865 17.3016 129.947 21.0751C144.031 24.8488 155.122 34.2154 161.472 46.145C148.033 49.0502 136.655 59.1919 132.852 73.3862C128.953 87.9367 134.077 102.779 144.794 111.973ZM163.659 50.8096C167.683 60.6662 168.637 71.8701 165.669 82.9471C162.829 93.5453 156.822 102.449 148.939 108.913C139.032 101.004 134.191 87.7075 137.681 74.6803C141.089 61.9618 151.504 52.9916 163.659 50.8096ZM96.4473 63.6291C92.9565 76.6568 82.1145 85.7518 69.5801 87.6468C65.9858 78.1079 65.2357 67.3943 68.0753 56.7969C71.0436 45.7191 77.4722 36.4926 85.8866 29.9688C95.3217 37.9361 99.8551 50.9111 96.4473 63.6291Z" fill="#D2D2D2"/>
<path fill-rule="evenodd" clip-rule="evenodd" d="M281.523 148.037C278.743 161.735 270.324 174.221 257.268 181.759C244.212 189.297 229.188 190.344 215.935 185.902C223.908 174.247 225.016 158.584 217.484 145.538C210.137 132.812 196.521 125.961 182.788 126.633C185.834 113.466 194.123 101.549 206.75 94.2584C219.377 86.9684 233.843 85.7487 246.768 89.694C239.318 101.251 238.443 116.47 245.791 129.197C253.323 142.243 267.443 149.115 281.523 148.037ZM251.613 91.446C261.428 95.5699 270.025 102.818 275.759 112.749C281.246 122.252 283.294 132.797 282.29 142.942C269.692 144.356 256.865 138.378 250.121 126.697C243.537 115.293 244.559 101.584 251.613 91.446ZM213.154 148.038C219.898 159.718 218.663 173.816 211.14 184.019C201.852 179.816 193.745 172.77 188.259 163.268C182.525 153.336 180.547 142.267 181.883 131.704C194.189 130.666 206.571 136.635 213.154 148.038Z" fill="#D2D2D2"/>
</g>
</svg>
