<svg width="277" height="157" viewBox="0 0 277 157" fill="none" xmlns="http://www.w3.org/2000/svg">
<mask id="mask0_5002_10039" style="mask-type:alpha" maskUnits="userSpaceOnUse" x="0" y="0" width="277" height="157">
<path d="M0 8C0 3.58172 3.58172 0 8 0H269C273.418 0 277 3.58172 277 8V157H0V8Z" fill="#FFEEDB"/>
</mask>
<g mask="url(#mask0_5002_10039)">
<rect x="-15" y="-10" width="309" height="179" fill="#E7E7E7"/>
<rect x="-15" y="-10" width="309" height="179" fill="#FF8A00"/>
<ellipse cx="176.5" cy="133.5" rx="15.5" ry="5.5" fill="black"/>
<ellipse cx="154.5" cy="133.5" rx="15.5" ry="5.5" fill="black"/>
<ellipse cx="135.5" cy="133.5" rx="14.5" ry="5.5" fill="black"/>
<circle cx="138.373" cy="121.372" r="16.634" transform="rotate(15 138.373 121.372)" fill="white"/>
<path fill-rule="evenodd" clip-rule="evenodd" d="M147.567 135.235C143.731 137.777 138.863 138.724 134.068 137.44C129.273 136.155 125.531 132.9 123.48 128.78C128.05 127.923 131.955 124.534 133.238 119.743C134.491 115.069 132.916 110.304 129.562 107.264C133.337 104.907 138.042 104.063 142.679 105.305C147.315 106.548 150.967 109.631 153.058 113.559C148.633 114.516 144.887 117.855 143.634 122.529C142.351 127.32 144.038 132.207 147.567 135.235ZM153.76 115.051C155.101 118.307 155.422 122.014 154.441 125.678C153.501 129.183 151.509 132.126 148.896 134.257C145.624 131.641 144.026 127.247 145.18 122.943C146.306 118.74 149.745 115.776 153.76 115.051ZM131.693 119.329C130.539 123.633 126.959 126.639 122.818 127.269C121.62 124.117 121.367 120.573 122.306 117.067C123.288 113.403 125.419 110.354 128.208 108.205C131.323 110.84 132.819 115.127 131.693 119.329Z" fill="#FFBE3F"/>
<circle cx="172.373" cy="121.374" r="16.634" transform="rotate(15 172.373 121.374)" fill="white"/>
<circle cx="155.408" cy="92.4075" r="16.634" transform="rotate(15 155.408 92.4075)" fill="white"/>
<path fill-rule="evenodd" clip-rule="evenodd" d="M188.995 122.004C188.819 126.604 186.745 131.108 182.902 134.25C179.058 137.393 174.231 138.53 169.689 137.789C171.662 133.578 171.191 128.429 168.052 124.589C164.989 120.844 160.202 119.339 155.775 120.286C156.066 115.846 158.128 111.533 161.845 108.495C165.561 105.456 170.197 104.293 174.606 104.889C172.799 109.04 173.322 114.031 176.384 117.777C179.524 121.617 184.477 123.102 188.995 122.004ZM176.227 105.19C179.654 106.004 182.85 107.907 185.251 110.844C187.548 113.654 188.774 116.99 188.977 120.355C184.944 121.483 180.444 120.214 177.623 116.764C174.869 113.396 174.471 108.873 176.227 105.19ZM166.813 125.602C169.634 129.052 169.983 133.714 168.076 137.443C164.818 136.575 161.793 134.711 159.495 131.901C157.094 128.965 155.864 125.454 155.748 121.934C159.706 120.945 164.059 122.234 166.813 125.602Z" fill="#FFBE3F"/>
<path fill-rule="evenodd" clip-rule="evenodd" d="M168.215 103.016C165.278 106.559 160.892 108.873 155.93 109.029C150.968 109.185 146.445 107.152 143.29 103.8C147.417 101.659 150.176 97.2856 150.02 92.3278C149.868 87.4919 146.983 83.3855 142.894 81.4438C145.826 78.0972 150.085 75.9287 154.884 75.7777C159.682 75.6267 164.069 77.5232 167.206 80.6787C163.246 82.8736 160.625 87.1533 160.777 91.9895C160.933 96.9474 163.962 101.138 168.215 103.016ZM168.309 81.9041C170.534 84.6338 171.913 88.0889 172.032 91.8803C172.147 95.5081 171.09 98.9011 169.204 101.696C165.316 100.138 162.517 96.3935 162.377 91.9392C162.24 87.5908 164.675 83.7584 168.309 81.9041ZM148.421 92.3781C148.561 96.8323 146.002 100.745 142.22 102.545C140.162 99.8739 138.895 96.5542 138.781 92.9265C138.662 89.1352 139.821 85.6003 141.869 82.7361C145.613 84.3584 148.284 88.03 148.421 92.3781Z" fill="#FFBE3F"/>
<rect x="83" y="49" width="11" height="81" rx="5.5" fill="black"/>
<path d="M132 90.2322L91 92L91 60L132 90.2322Z" fill="white"/>
<ellipse cx="88.5" cy="53" rx="5.5" ry="4" fill="white"/>
</g>
</svg>
