<svg width="670" height="247" viewBox="0 0 670 247" fill="none" xmlns="http://www.w3.org/2000/svg">
<rect x="261" y="54" width="154" height="154" rx="25" fill="#ECECEC"/>
<path fill-rule="evenodd" clip-rule="evenodd" d="M366.203 156.106C359.005 164.252 348.478 169.389 336.752 169.389C325.026 169.389 314.5 164.252 307.301 156.106C317.203 151.356 324.041 141.237 324.041 129.521C324.041 118.093 317.535 108.184 308.025 103.296C315.197 95.6137 325.414 90.8105 336.752 90.8105C348.091 90.8105 358.309 95.6141 365.48 103.297C355.97 108.185 349.464 118.094 349.464 129.522C349.464 141.238 356.301 151.357 366.203 156.106ZM368.735 107.274C373.335 113.708 376.042 121.588 376.042 130.1C376.042 138.226 373.575 145.776 369.349 152.042C360.599 148.313 354.464 139.634 354.464 129.522C354.464 119.648 360.313 111.141 368.735 107.274ZM319.041 129.521C319.041 139.633 312.906 148.313 304.155 152.041C299.93 145.775 297.463 138.226 297.463 130.1C297.463 121.587 300.17 113.707 304.77 107.273C313.192 111.14 319.041 119.647 319.041 129.521Z" fill="white"/>
<circle cx="243" cy="72" r="39" fill="black"/>
<path d="M288.834 96.5524L267.164 91.3796L275.435 78.7534L288.834 96.5524Z" fill="black"/>
<rect x="240" y="54" width="8" height="21" fill="white"/>
<rect x="240" y="80" width="8" height="7" fill="white"/>
</svg>
