<svg width="15" height="13" viewBox="0 0 15 13" fill="none" xmlns="http://www.w3.org/2000/svg">
<path fill-rule="evenodd" clip-rule="evenodd" d="M6.60663 1.94789C7.47489 1.95135 8.35199 2.19557 9.13055 2.70217C9.35224 2.84642 9.65068 2.78633 9.79712 2.56796C9.94357 2.34959 9.88257 2.05562 9.66087 1.91137C7.89443 0.761977 5.70814 0.730469 3.96118 1.64387C3.27826 2.00093 2.66247 2.5024 2.16514 3.13794C1.74918 3.66756 1.42918 4.27401 1.23082 4.932C0.803446 6.3457 0.978261 7.86345 1.68296 9.13683C2.03544 9.77375 2.52049 10.3495 3.12905 10.8206C3.69753 11.2622 4.35527 11.5973 5.07124 11.7953C6.48022 12.1861 7.98423 12.0095 9.2512 11.3323C9.91086 10.9797 10.5063 10.4914 10.9905 9.87682C11.7085 8.969 12.1437 7.83353 12.1657 6.59881L13.1374 7.84434C13.2993 8.05186 13.6014 8.09081 13.812 7.93134C14.0227 7.77187 14.0622 7.47437 13.9004 7.26685L12.2884 5.20064C12.1265 4.99312 11.8245 4.95417 11.6138 5.11364L9.51619 6.70144C9.30551 6.86091 9.26597 7.15841 9.42786 7.36593C9.58976 7.57345 9.89178 7.6124 10.1025 7.45293L11.2029 6.61997C11.1799 7.49394 10.9069 8.3066 10.4516 8.9911C10.4474 8.99687 10.4433 9.00276 10.4392 9.00876C10.3727 9.10792 10.303 9.20368 10.2302 9.29599C9.39849 10.3508 8.17116 10.9559 6.89444 11.0416C6.79171 11.0483 6.68806 11.0517 6.5836 11.0517C6.15574 11.0517 5.74146 10.9944 5.34824 10.8872C4.89393 10.763 4.45135 10.5676 4.03672 10.2978C3.92655 10.2261 3.82051 10.1506 3.71867 10.0715C2.66881 9.25629 2.0646 8.06385 1.97416 6.82253C1.96659 6.71601 1.96275 6.60848 1.96275 6.50007C1.96275 6.05015 2.02902 5.61548 2.15247 5.20502C2.27917 4.7849 2.47011 4.37586 2.72805 3.99124C2.79113 3.89718 2.85714 3.80618 2.92589 3.71828C3.32656 3.20786 3.8349 2.78361 4.41737 2.47855C4.9706 2.19002 5.5769 2.01589 6.1965 1.96417C6.32413 1.95375 6.45324 1.94843 6.5836 1.94843C6.59132 1.94843 6.599 1.94825 6.60663 1.94789Z" fill="white" stroke="white" stroke-width="0.2" stroke-linecap="round"/>
</svg>
