<svg width="20" height="20" viewBox="0 0 20 20" fill="none" xmlns="http://www.w3.org/2000/svg">
<rect width="20" height="20" rx="6" fill="white"/>
<path fill-rule="evenodd" clip-rule="evenodd" d="M6.85438 6.14645C6.65912 5.95118 6.34253 5.95118 6.14727 6.14645C5.95201 6.34171 5.95201 6.65829 6.14727 6.85355L9.29771 10.004L6.14645 13.1553C5.95118 13.3505 5.95118 13.6671 6.14645 13.8624C6.34171 14.0576 6.65829 14.0576 6.85355 13.8624L10.0048 10.7111L13.1498 13.8561C13.345 14.0513 13.6616 14.0513 13.8569 13.8561C14.0521 13.6608 14.0521 13.3442 13.8569 13.149L10.7119 10.004L13.8561 6.85986C14.0513 6.6646 14.0513 6.34802 13.8561 6.15275C13.6608 5.95749 13.3442 5.95749 13.149 6.15275L10.0048 9.29689L6.85438 6.14645Z" fill="#D3D3D3"/>
</svg>
