<svg width="34" height="34" viewBox="0 0 34 34" fill="none" xmlns="http://www.w3.org/2000/svg">
<rect x="0.5" y="0.5" width="33" height="33" rx="7.5" fill="white" stroke="#E7E7E7"/>
<path fill-rule="evenodd" clip-rule="evenodd" d="M16.9005 11.1844C17.9691 11.1887 19.0486 11.4938 20.0068 12.1268C20.2797 12.3071 20.647 12.232 20.8272 11.9591C21.0075 11.6863 20.9324 11.319 20.6595 11.1387C18.4855 9.70259 15.7946 9.66322 13.6445 10.8045C12.804 11.2507 12.0461 11.8772 11.434 12.6713C10.9221 13.3331 10.5282 14.0908 10.2841 14.913C9.75809 16.6794 9.97324 18.5758 10.8406 20.1668C11.2744 20.9627 11.8714 21.6821 12.6204 22.2707C13.32 22.8225 14.1296 23.2412 15.0108 23.4886C16.7449 23.9769 18.596 23.7562 20.1553 22.91C20.9672 22.4695 21.7 21.8593 22.296 21.0915C23.1797 19.9571 23.7153 18.5384 23.7425 16.9956L24.9384 18.5519C25.1376 18.8112 25.5094 18.8599 25.7687 18.6606C26.0279 18.4614 26.0766 18.0896 25.8774 17.8303L23.8934 15.2486C23.6942 14.9893 23.3225 14.9407 23.0632 15.1399L20.4815 17.1239C20.2222 17.3231 20.1735 17.6948 20.3728 17.9541C20.572 18.2134 20.9437 18.2621 21.203 18.0628L22.5574 17.0221C22.5292 18.1141 22.1931 19.1295 21.6328 19.9848C21.6276 19.992 21.6225 19.9993 21.6175 20.0068C21.5357 20.1307 21.4498 20.2504 21.3602 20.3657C20.3366 21.6836 18.826 22.4397 17.2547 22.5468C17.1283 22.5552 17.0007 22.5595 16.8721 22.5595C16.3455 22.5595 15.8356 22.4879 15.3517 22.3539C14.7925 22.1987 14.2478 21.9546 13.7375 21.6175C13.6019 21.5279 13.4714 21.4336 13.3461 21.3347C12.0539 20.3161 11.3103 18.8262 11.199 17.2752C11.1897 17.1421 11.1849 17.0077 11.1849 16.8723C11.1849 16.3101 11.2665 15.767 11.4184 15.2541C11.5744 14.7292 11.8094 14.2181 12.1268 13.7375C12.2045 13.62 12.2857 13.5063 12.3703 13.3964C12.8635 12.7587 13.4891 12.2286 14.206 11.8474C14.8869 11.4869 15.6331 11.2693 16.3957 11.2047C16.5528 11.1917 16.7117 11.185 16.8721 11.185C16.8816 11.185 16.8911 11.1848 16.9005 11.1844Z" fill="#A6A6A6" stroke="#A6A6A6" stroke-width="0.1" stroke-linecap="round"/>
</svg>
