<svg width="277" height="157" viewBox="0 0 277 157" fill="none" xmlns="http://www.w3.org/2000/svg">
<mask id="mask0_5130_21855" style="mask-type:alpha" maskUnits="userSpaceOnUse" x="0" y="0" width="277" height="157">
<path d="M0 8C0 3.58172 3.58172 0 8 0H269C273.418 0 277 3.58172 277 8V157H0V8Z" fill="#FFEEDB"/>
</mask>
<g mask="url(#mask0_5130_21855)">
<rect x="-15" y="-10" width="309" height="179" fill="#FF8A00"/>
<ellipse cx="163" cy="134.5" rx="17" ry="5.5" fill="black"/>
<circle cx="153.371" cy="121.372" r="16.634" transform="rotate(15 153.371 121.372)" fill="white"/>
<path fill-rule="evenodd" clip-rule="evenodd" d="M162.565 135.235C158.729 137.777 153.861 138.724 149.066 137.44C144.271 136.155 140.529 132.9 138.478 128.78C143.048 127.923 146.953 124.534 148.236 119.743C149.489 115.069 147.914 110.304 144.561 107.264C148.335 104.907 153.04 104.063 157.677 105.305C162.313 106.548 165.965 109.631 168.056 113.559C163.631 114.516 159.885 117.855 158.632 122.529C157.349 127.32 159.036 132.207 162.565 135.235ZM168.758 115.051C170.099 118.307 170.42 122.014 169.439 125.678C168.499 129.183 166.507 132.126 163.894 134.257C160.622 131.641 159.025 127.247 160.178 122.943C161.304 118.74 164.743 115.776 168.758 115.051ZM146.691 119.329C145.538 123.633 141.957 126.639 137.816 127.269C136.619 124.117 136.365 120.573 137.304 117.067C138.286 113.403 140.417 110.354 143.206 108.205C146.321 110.84 147.817 115.127 146.691 119.329Z" fill="#FFBE3F"/>
<rect x="109" y="49" width="11" height="81" rx="5.5" fill="black"/>
<path d="M158 90.2322L117 92L117 60L158 90.2322Z" fill="white"/>
<ellipse cx="114.5" cy="53" rx="5.5" ry="4" fill="white"/>
</g>
</svg>
